<?xml version="1.0" encoding="utf-8"?>
<svg version="1.1" xmlns="http://www.w3.org/2000/svg" xmlns:xlink="http://www.w3.org/1999/xlink" x="0px" y="0px" viewBox="0 0 100 97" fill="none" xml:space="preserve"><path d="M52 56.75h-4l-6-10.5s-5.44.625-8 3c-5.139 4.769-4 18.5-4 18.5h40s1.139-13.731-4-18.5c-2.56-2.375-8-3-8-3l-6 10.5zm-16 10.5l1-9.5m27 9.5l-1-9.5" stroke="currentColor" stroke-width="3"></path><circle cx="50" cy="34.251" r="9" stroke="currentColor" stroke-width="3"></circle><path d="M50.25 8.25c-20.65 0-37.778 15.86-39.8 36m33.55-30l6-6-6-6m-33.75 46c0 20.565 15.728 37.635 35.75 39.775" stroke="currentColor" stroke-width="4"></path><path d="M4.5 53.25l6-6 6 6m33.5 35c20.65 0 37.778-15.86 39.8-36" stroke="currentColor" stroke-width="4"></path><path d="M56 94.25l-6-6 6-6m34-34c0-20.65-15.86-37.776-36-39.8" stroke="currentColor" stroke-width="4"></path><path d="M84 42.25l6 6 6-6" stroke="currentColor" stroke-width="4"></path></svg>
